HIERARCHY
ROOT Hips
{
	OFFSET 0.000000 0.000000 0.000000 
	CHANNELS 6 Xposition Yposition Zposition Yrotation Zrotation Xrotation 
	JOINT Lumbar
	{
		OFFSET 0.000000 0.000000 0.000000 
		CHANNELS 3 Zrotation Xrotation Yrotation
		JOINT Neck
		{
			OFFSET 0.000000 0.445665 0.000000 
			CHANNELS 3 Zrotation Xrotation Yrotation
			End Site
			{
				OFFSET 0.000000 0.227535 0.000000 
			}
		}
		JOINT RightShoulder
		{
			OFFSET 0.019635 0.377685 0.194865 
			CHANNELS 3 Zrotation Xrotation Yrotation
			JOINT RightElbow
			{
				OFFSET 0.000000 -0.243375 0.000000 
				CHANNELS 2 Zrotation Yrotation
				JOINT RightWrist
				{
					OFFSET 0.000000 -0.264825 0.000000 
					CHANNELS 2 Zrotation Xrotation
					End Site
					{
						OFFSET 0.006600 -0.176220 0.000990 
					}
				}
			}
		}
		JOINT LeftShoulder
		{
			OFFSET 0.019635 0.377685 -0.194865 
			CHANNELS 3 Zrotation Xrotation Yrotation
			JOINT LeftElbow
			{
				OFFSET 0.000000 -0.243375 0.000000 
				CHANNELS 2 Zrotation Yrotation
				JOINT LeftWrist
				{
					OFFSET 0.000000 -0.264825 0.000000 
					CHANNELS 2 Zrotation Xrotation
					End Site
					{
						OFFSET 0.006600 -0.176220 -0.000990 
					}
				}
			}
		}
	}
	JOINT RightHip
	{
		OFFSET 0.052140 -0.069960 0.075570 
		CHANNELS 3 Zrotation Xrotation Yrotation
		JOINT RightKnee
		{
			OFFSET 0.000000 -0.402270 0.000000 
			CHANNELS 1 Zrotation
			JOINT RightAnkle
			{
				OFFSET 0.000000 -0.404085 0.000000 
				CHANNELS 3 Zrotation Xrotation Yrotation
				End Site
				{
					OFFSET 0.204105 -0.089430 0.008415 
				}
			}
		}
	}
	JOINT LeftHip
	{
		OFFSET 0.052140 -0.069960 -0.075570 
		CHANNELS 3 Zrotation Xrotation Yrotation
		JOINT LeftKnee
		{
			OFFSET 0.000000 -0.402270 0.000000 
			CHANNELS 1 Zrotation
			JOINT LeftAnkle
			{
				OFFSET 0.000000 -0.404085 0.000000 
				CHANNELS 3 Zrotation Xrotation Yrotation
				End Site
				{
					OFFSET 0.204105 -0.089430 -0.008415 
				}
			}
		}
	}
}
MOTION
Frames: 27
Frame Time: 0.02
-0.17479 -0.2929 0.08015 25.21853 -19.40068 -4.58783 36.8243 0.67944 0.61222 -6.18673 -1.9096 -0.83074 43.81379 -47.22755 60.55636 99.3907 84.2057 1.37555 -0.96771 18.08648 23.79467 -42.51963 99.38579 -82.12207 5.4118 3.08597 97.07051 -11.36269 -8.21538 -77.23688 -7.75938 -3.16831 -2.33932 98.94488 11.86675 7.99233 -71.53078 -11.1584 3.8966 2.92226
-0.17486 -0.29288 0.0802 25.19582 -19.39149 -4.54521 36.74138 0.65633 0.67132 -6.20957 -1.91408 -0.83074 42.91897 -46.63332 59.54032 99.24383 84.35402 3.105 -1.21005 18.18424 23.82601 -42.65656 99.0783 -82.08518 6.26412 3.2968 97.0739 -11.34004 -8.18584 -77.22329 -7.76227 -3.16875 -2.33965 98.92017 11.87532 8.01134 -71.51763 -11.16049 3.8999 2.92397
-0.17497 -0.29286 0.08023 25.17088 -19.37237 -4.49146 36.64317 0.62376 0.73144 -6.2324 -1.91955 -0.83074 41.50706 -45.76619 57.8151 99.12763 84.48007 5.43516 -1.59793 18.28715 23.851 -42.79975 98.7376 -82.00387 7.1839 3.5636 97.06659 -11.32341 -8.15603 -77.20303 -7.7661 -3.16901 -2.33991 98.8764 11.90827 8.07267 -71.4987 -11.16191 3.90085 2.92406
-0.17505 -0.29284 0.08027 25.14721 -19.35873 -4.44292 36.55379 0.59508 0.786 -6.25335 -1.92469 -0.83075 40.40935 -45.04582 56.47428 99.01685 84.60384 7.4443 -1.91068 18.38102 23.87589 -42.93788 98.41188 -81.91915 8.06135 3.79849 97.0649 -11.30481 -8.12623 -77.18657 -7.76952 -3.16911 -2.34004 98.84234 11.92908 8.11369 -71.48286 -11.16363 3.90283 2.92485
-0.17516 -0.29284 0.08033 25.1222 -19.34092 -4.39385 36.45639 0.56827 0.86241 -6.28265 -1.92936 -0.83075 38.97876 -44.2318 54.88119 98.82684 84.78736 9.65554 -2.25805 18.50454 23.91527 -43.08861 98.08566 -81.92946 8.99216 4.06019 97.06007 -11.283 -8.09746 -77.16684 -7.77282 -3.17016 -2.34082 98.80407 11.95397 8.15818 -71.46508 -11.16554 3.90505 2.92583
-0.17523 -0.2928 0.08035 25.09948 -19.32966 -4.34321 36.37238 0.53522 0.89317 -6.29399 -1.93521 -0.83075 38.1256 -43.54743 53.64417 98.80631 84.83271 11.58747 -2.57023 18.56663 23.92181 -43.21258 97.75243 -81.7373 9.82605 4.27924 97.05946 -11.26889 -8.0658 -77.15234 -7.77664 -3.16923 -2.34026 98.7702 11.97628 8.20581 -71.44996 -11.16683 3.90618 2.92602
-0.17519 -0.29269 0.08028 25.08473 -19.33658 -4.29075 36.32562 0.48784 0.80067 -6.26054 -1.94425 -0.83075 38.89879 -43.28233 53.5247 99.26904 84.57477 12.61663 -2.73567 18.46277 23.84447 -43.27076 97.41491 -80.94376 10.37862 4.37082 97.06995 -11.27996 -8.03253 -77.15394 -7.78126 -3.16247 -2.33572 98.75032 11.98586 8.25294 -71.44365 -11.16645 3.90478 2.92438
-0.17512 -0.29256 0.08018 25.07226 -19.35086 -4.23712 36.29349 0.43442 0.66167 -6.20804 -1.95442 -0.83075 40.28509 -43.15661 53.79055 99.89661 84.16763 13.34133 -2.86304 18.29603 23.73316 -43.29985 97.07048 -79.95744 10.83034 4.41718 97.08557 -11.29789 -7.99551 -77.16104 -7.78643 -3.15376 -2.32988 98.736 11.992 8.30174 -71.44018 -11.16547 3.90235 2.92201
-0.17507 -0.29243 0.0801 25.05805 -19.36329 -4.18408 36.25691 0.38334 0.54188 -6.16125 -1.96397 -0.83075 41.45395 -42.97179 53.90755 100.43419 83.77729 14.19563 -3.01796 18.15452 23.63372 -43.33538 96.72485 -79.09475 11.32575 4.48135 97.10088 -11.3089 -7.95565 -77.16563 -7.79163 -3.14623 -2.32487 98.7209 11.99953 8.3491 -71.43538 -11.16478 3.90045 2.92004
-0.17502 -0.29231 0.08002 25.04657 -19.36905 -4.1303 36.21047 0.33354 0.43003 -6.12729 -1.97402 -0.83075 42.35511 -42.76433 53.90127 101.038 83.58986 15.10807 -3.13684 18.02667 23.54901 -43.39902 96.39619 -78.08024 11.83231 4.55787 97.10737 -11.33509 -7.93364 -77.17006 -7.79572 -3.13758 -2.31895 98.69774 12.00861 8.40066 -71.43063 -11.16395 3.89825 2.91776
-0.17495 -0.29217 0.07993 25.03016 -19.39062 -4.07806 36.18827 0.2799 0.29087 -6.06158 -1.98327 -0.83075 43.95548 -42.6347 54.2373 101.54076 82.95929 15.81904 -3.31711 17.8562 23.4258 -43.39811 96.03121 -77.33448 12.29119 4.5987 97.13347 -11.33255 -7.87521 -77.17619 -7.80218 -3.13063 -2.3145 98.69298 12.01336 8.44347 -71.42644 -11.16332 3.89643 2.91594
-0.17484 -0.29195 0.07982 24.99815 -19.45365 -4.02927 36.22926 0.21594 0.08535 -5.91692 -1.98998 -0.83075 47.43244 -42.73942 55.55995 101.73991 81.014 16.0456 -3.69962 17.57599 23.20281 -43.2171 95.56612 -77.39833 12.63785 4.53817 97.2136 -11.23734 -7.70279 -77.18585 -7.81558 -3.13034 -2.31534 98.73734 12.00678 8.46026 -71.42372 -11.16321 3.89621 2.91568
-0.17472 -0.29171 0.07971 24.96141 -19.53248 -3.98236 36.29422 0.14862 -0.14556 -5.74011 -1.99584 -0.83075 51.57762 -42.90987 57.19377 101.82877 78.6505 16.07626 -4.14044 17.25631 22.94252 -42.97353 95.06543 -77.73597 12.93974 4.44505 97.31314 -11.11498 -7.49633 -77.19702 -7.83125 -3.13157 -2.31754 98.8002 11.99585 8.46822 -71.42137 -11.16337 3.89636 2.91588
-0.1746 -0.29147 0.0796 24.92774 -19.60438 -3.93532 36.34838 0.08359 -0.36334 -5.57547 -2.00211 -0.83075 55.35528 -43.01536 58.5975 101.9574 76.56391 16.1967 -4.53809 16.95964 22.7006 -42.76474 94.58188 -77.93488 13.26633 4.37637 97.40306 -11.01285 -7.31508 -77.20741 -7.84552 -3.13109 -2.31849 98.85486 11.98698 8.48105 -71.41845 -11.16353 3.89615 2.91577
-0.17448 -0.29124 0.07949 24.89012 -19.67544 -3.88503 36.40268 0.01497 -0.58965 -5.42084 -2.00836 -0.83075 59.41929 -43.27015 60.38136 102.13473 74.11086 16.30832 -5.00358 16.63976 22.45181 -42.52909 94.09295 -78.18647 13.57473 4.26777 97.49641 -10.87826 -7.09335 -77.21837 -7.86136 -3.13476 -2.322 98.90872 11.97779 8.49054 -71.41731 -11.16316 3.89673 2.91605
-0.17436 -0.291 0.07938 24.85975 -19.75197 -3.84216 36.46214 -0.04671 -0.80341 -5.2375 -2.0144 -0.83075 63.04299 -43.23223 61.45151 102.18323 72.31689 16.38992 -5.34371 16.35916 22.20853 -42.33372 93.6082 -78.39705 13.9071 4.23231 97.58732 -10.80396 -6.94693 -77.22842 -7.87448 -3.13031 -2.3206 98.96873 11.96811 8.5046 -71.41253 -11.16397 3.89577 2.91563
-0.17427 -0.29074 0.07929 24.84915 -19.83895 -3.81761 36.53027 -0.08995 -0.97785 -4.98678 -2.02017 -0.83075 65.23768 -42.33119 60.39463 101.89342 72.50564 16.48669 -5.30944 16.20166 21.99339 -42.2754 93.13257 -78.41834 14.35702 4.43184 97.66535 -10.9095 -7.02527 -77.23571 -7.87938 -3.10197 -2.30459 99.03965 11.9596 8.5356 -71.39745 -11.16793 3.89039 2.91318
-0.17418 -0.29047 0.07921 24.84625 -19.93098 -3.80078 36.60261 -0.12575 -1.13821 -4.70754 -2.02572 -0.83075 66.97148 -41.13976 58.62125 101.47846 73.36207 16.55241 -5.14969 16.08461 21.78474 -42.25811 92.66466 -78.3916 14.82605 4.70201 97.74047 -11.07537 -7.17905 -77.24198 -7.88148 -3.06562 -2.28374 99.11636 11.95051 8.57108 -71.37872 -11.1731 3.88346 2.91002
-0.17409 -0.29021 0.07912 24.84074 -20.02114 -3.78151 36.67275 -0.16391 -1.30385 -4.4389 -2.0313 -0.83075 68.94704 -40.10618 57.22727 101.12649 73.87331 16.60057 -5.05683 15.9459 21.57054 -42.21507 92.20032 -78.3937 15.25974 4.92319 97.81783 -11.20914 -7.29269 -77.24861 -7.88497 -3.03368 -2.26559 99.19143 11.94074 8.60309 -71.36177 -11.17777 3.87727 2.9072
-0.17398 -0.28993 0.07903 24.83136 -20.11008 -3.75775 36.745 -0.20656 -1.47537 -4.17941 -2.03719 -0.83075 70.81384 -38.96615 55.61968 100.7459 74.54413 16.7742 -4.92468 15.81891 21.36514 -42.19917 91.70413 -78.37549 15.80235 5.21305 97.89206 -11.36165 -7.42972 -77.25574 -7.88806 -2.99857 -2.2454 99.26304 11.93476 8.64088 -71.34435 -11.18224 3.87092 2.90433
-0.17391 -0.28969 0.07895 24.8319 -20.20252 -3.74519 36.81345 -0.23799 -1.63069 -3.89411 -2.04234 -0.83075 72.78399 -37.97742 54.27981 100.39546 75.04915 16.68326 -4.84338 15.67849 21.14449 -42.1381 91.27746 -78.38481 16.12573 5.3789 97.97178 -11.48993 -7.53659 -77.26154 -7.89128 -2.96813 -2.22828 99.3429 11.92083 8.66779 -71.32702 -11.18742 3.86455 2.90138
-0.17392 -0.28957 0.0789 24.85833 -20.3036 -3.76141 36.871 -0.24058 -1.74687 -3.54811 -2.04579 -0.83075 75.18949 -37.48223 53.87786 100.16931 74.91375 15.85708 -4.93686 15.48422 20.87159 -41.93618 91.03351 -78.47878 15.81759 5.16955 98.06801 -11.53565 -7.54016 -77.2641 -7.89551 -2.95265 -2.22091 99.44469 11.88482 8.66361 -71.31099 -11.1943 3.8585 2.89836
-0.17396 -0.28949 0.07885 24.89442 -20.40788 -3.78866 36.92433 -0.23205 -1.84668 -3.17663 -2.04842 -0.83075 77.70378 -37.14815 53.76422 99.97653 74.59447 14.76907 -5.0849 15.27662 20.58499 -41.689 90.86076 -78.6009 15.29238 4.83615 98.16962 -11.55521 -7.51128 -77.26532 -7.89996 -2.94213 -2.21678 99.55435 11.84091 8.64834 -71.29516 -11.20186 3.85248 2.89529
-0.17399 -0.28939 0.07881 24.92588 -20.51051 -3.81101 36.97909 -0.2284 -1.95248 -2.81461 -2.05124 -0.83075 80.14137 -36.73681 53.5015 99.76206 74.37369 13.80999 -5.20524 15.07969 20.3103 -41.46666 90.66047 -78.71141 14.88092 4.56974 98.2683 -11.58748 -7.49843 -77.26702 -7.90431 -2.92928 -2.2111 99.65997 11.80078 8.63817 -71.27911 -11.20911 3.84646 2.89225
-0.17402 -0.2893 0.07876 24.95868 -20.61424 -3.83316 37.03613 -0.22527 -2.06402 -2.46046 -2.05486 -0.83075 82.68145 -36.33223 53.28969 99.57027 74.11155 12.80761 -5.33339 14.86427 20.01139 -41.22706 90.44026 -78.81727 14.40647 4.26046 98.36909 -11.61835 -7.48263 -77.26923 -7.90857 -2.91648 -2.2056 99.76787 11.75976 8.62797 -71.26339 -11.21641 3.84035 2.88915
-0.17404 -0.28919 0.07871 24.9908 -20.71625 -3.85827 37.08729 -0.21845 -2.15981 -2.08434 -2.05659 -0.83075 85.03597 -35.95589 53.05027 99.34137 73.88493 11.83378 -5.46 14.6842 19.76013 -41.01294 90.27817 -78.93777 14.01124 4.01072 98.46662 -11.64514 -7.46445 -77.27007 -7.91309 -2.90486 -2.20055 99.8727 11.7188 8.61506 -71.24716 -11.22372 3.83446 2.88618
-0.17405 -0.28902 0.07864 25.01954 -20.8137 -3.88868 37.12381 -0.2048 -2.21664 -1.65341 -2.05356 -0.83075 86.88437 -35.61718 52.66138 98.99839 73.78381 11.00293 -5.56818 14.60013 19.63916 -40.87297 90.26098 -79.11183 13.88987 3.94985 98.5553 -11.66694 -7.44597 -77.26741 -7.9184 -2.89513 -2.19596 99.96801 11.67933 8.59828 -71.22881 -11.2311 3.82913 2.88358
